<svg width="16" height="16" viewBox="0 0 16 16" fill="none" xmlns="http://www.w3.org/2000/svg">
    <path fill-rule="evenodd" clip-rule="evenodd" d="M3.99967 8.00016C3.99967 7.26378 3.40272 6.66683 2.66634 6.66683C1.92996 6.66683 1.33301 7.26378 1.33301 8.00016C1.33301 8.73654 1.92996 9.3335 2.66634 9.3335C3.40272 9.3335 3.99967 8.73654 3.99967 8.00016ZM9.33301 8.00016C9.33301 7.26378 8.73605 6.66683 7.99967 6.66683C7.2633 6.66683 6.66634 7.26378 6.66634 8.00016C6.66634 8.73654 7.2633 9.3335 7.99967 9.3335C8.73605 9.3335 9.33301 8.73654 9.33301 8.00016ZM13.333 6.66683C14.0694 6.66683 14.6663 7.26378 14.6663 8.00016C14.6663 8.73654 14.0694 9.3335 13.333 9.3335C12.5966 9.3335 11.9997 8.73654 11.9997 8.00016C11.9997 7.26378 12.5966 6.66683 13.333 6.66683Z" fill="#5596E2"/>
</svg>
    