<svg width="14" height="18" viewBox="0 0 14 18" fill="none" xmlns="http://www.w3.org/2000/svg">
<path fill-rule="evenodd" clip-rule="evenodd" d="M1.99992 0.666748C1.07944 0.666748 0.333252 1.41294 0.333252 2.33342V15.6667C0.333252 16.5872 1.07944 17.3334 1.99992 17.3334H11.9999C12.9204 17.3334 13.6666 16.5872 13.6666 15.6667V2.33341C13.6666 1.41294 12.9204 0.666748 11.9999 0.666748H1.99992ZM1.99992 2.33342L11.9999 2.33341V15.6667H1.99992V2.33342ZM4.49992 4.83342C4.03968 4.83342 3.66659 5.20651 3.66659 5.66675C3.66659 6.12699 4.03968 6.50008 4.49992 6.50008H6.16658C6.62682 6.50008 6.99992 6.12699 6.99992 5.66675C6.99992 5.20651 6.62682 4.83342 6.16658 4.83342H4.49992ZM3.66659 9.00008C3.66659 8.53984 4.03968 8.16675 4.49992 8.16675H7.83325C8.29349 8.16675 8.66658 8.53984 8.66658 9.00008C8.66658 9.46032 8.29349 9.83342 7.83325 9.83342H4.49992C4.03968 9.83342 3.66659 9.46032 3.66659 9.00008ZM4.49992 11.5001C4.03968 11.5001 3.66659 11.8732 3.66659 12.3334C3.66659 12.7937 4.03968 13.1667 4.49992 13.1667H9.49992C9.96016 13.1667 10.3333 12.7937 10.3333 12.3334C10.3333 11.8732 9.96016 11.5001 9.49992 11.5001H4.49992Z" fill="#6F767E"/>
</svg>
