<svg width="20" height="20" viewBox="0 0 20 20" fill="none" xmlns="http://www.w3.org/2000/svg">
    <path d="M5.58909 4.41058C5.26366 4.08514 4.73602 4.08514 4.41058 4.41058C4.08514 4.73602 4.08514 5.26366 4.41058 5.58909L8.82134 9.99985L4.41061 14.4106C4.08517 14.736 4.08517 15.2637 4.41061 15.5891C4.73604 15.9145 5.26368 15.9145 5.58912 15.5891L9.99985 11.1784L14.4106 15.5891C14.736 15.9145 15.2637 15.9145 15.5891 15.5891C15.9145 15.2637 15.9145 14.736 15.5891 14.4106L11.1784 9.99985L15.5891 5.58909C15.9146 5.26366 15.9146 4.73602 15.5891 4.41058C15.2637 4.08515 14.736 4.08515 14.4106 4.41058L9.99985 8.82134L5.58909 4.41058Z" fill="#050505" />
</svg>
    